# xmcd
#
# Track frame offsets:
# 150
# 17525
# 35543
# 52284
# 68631
# 76958
# 82696
# 88202
# 97039
# 113200
# 128604
# 141080
# 149234
# 158800
# 164110
# 171203
# 190583
# 206842
# 228834
# 245920
# 252513
# 258312
# 263794
#
# Disc length: 3600 seconds
#
#
# Revision: 0
# Processed by: cddbd v1.5.2PL0 Copyright (c) Steve Scherf et al.
# Submitted via: FreeRIP 2.92 
#
DISCID=4d0e0e17
DTITLE=Various Artist - Ek is lief vir Country
DYEAR=2005
DGENRE=Country
TTITLE0=Somebody like you
TTITLE1=Red dirt road
TTITLE2=Forever and for always
TTITLE3=Redneck woman
TTITLE4=Let your love flow
TTITLE5=Achy breaky heart
TTITLE6=Rhinestone cowboy
TTITLE7=Tulsa time
TTITLE8=Party for two
TTITLE9=Some beach
TTITLE10=Do you wanna make something of it
TTITLE11=If I said you had a beautiful body
TTITLE12=The most beautiful girl in the world
TTITLE13=Woman, beautiful woman
TTITLE14=Back home again
TTITLE15=Jolene
TTITLE16=Teenage queenie
TTITLE17=Mississippi
TTITLE18=Ka-ching
TTITLE19=Coward of the county
TTITLE20=Heaven is my woman's love
TTITLE21=I recall a gypsy woman
TTITLE22=Some broken hearts
EXTD=
EXTT0=
EXTT1=
EXTT2=
EXTT3=
EXTT4=
EXTT5=
EXTT6=
EXTT7=
EXTT8=
EXTT9=
EXTT10=
EXTT11=
EXTT12=
EXTT13=
EXTT14=
EXTT15=
EXTT16=
EXTT17=
EXTT18=
EXTT19=
EXTT20=
EXTT21=
EXTT22=
PLAYORDER=
